<?xml version="1.0" standalone="no"?>
<!DOCTYPE svg PUBLIC "-//W3C//DTD SVG 20010904//EN"
 "http://www.w3.org/TR/2001/REC-SVG-20010904/DTD/svg10.dtd">
<svg version="1.0" xmlns="http://www.w3.org/2000/svg"
 width="500.000000pt" height="500.000000pt" viewBox="0 0 500.000000 500.000000"
 preserveAspectRatio="xMidYMid meet">
<metadata>
Created by potrace 1.14, written by Peter Selinger 2001-2017
</metadata>
<g transform="translate(0.000000,500.000000) scale(0.100000,-0.100000)"
fill="#000000" stroke="none">
<path d="M0 2500 l0 -2500 2500 0 2500 0 0 2500 0 2500 -2500 0 -2500 0 0
-2500z m1538 -272 c36 -29 41 -38 41 -75 l1 -43 -56 0 c-48 0 -57 3 -61 20 -5
18 -12 21 -52 18 l-46 -3 -3 -94 c-3 -104 0 -111 56 -111 26 0 35 5 42 25 9
23 15 25 65 25 l55 0 0 -42 c0 -38 -5 -47 -40 -75 -37 -32 -42 -33 -125 -33
l-86 0 -50 42 -49 41 0 126 0 126 47 42 48 42 86 1 c83 0 89 -1 127 -32z m401
-5 c71 -275 74 -282 95 -285 17 -2 22 -11 24 -50 l3 -48 -105 0 -106 0 0 45
c0 30 5 47 14 51 8 3 12 13 9 25 -8 28 -88 28 -96 0 -3 -12 1 -22 9 -25 9 -4
14 -21 14 -51 l0 -45 -90 0 -90 0 0 45 c0 38 4 47 23 54 19 8 29 27 50 103 31
109 32 118 12 118 -11 0 -15 12 -15 50 l0 50 120 0 119 0 10 -37z m341 -12 c0
-34 -4 -51 -15 -55 -12 -4 -15 -26 -15 -105 0 -99 0 -101 25 -107 14 -3 36 -3
50 0 25 6 25 8 25 107 0 79 -3 101 -15 105 -11 4 -15 21 -15 55 l0 49 100 0
100 0 0 -45 c0 -39 -3 -47 -25 -55 -25 -9 -25 -10 -25 -134 l0 -124 -39 -31
c-37 -30 -43 -31 -135 -31 l-96 0 -40 36 -40 36 0 120 c0 111 -1 120 -20 125
-17 4 -20 14 -20 54 l0 49 100 0 100 0 0 -49z m576 13 c38 -32 44 -41 44 -75
l0 -39 -59 0 c-51 0 -61 3 -66 20 -5 16 -15 20 -51 20 -36 0 -44 -3 -44 -19 0
-20 13 -25 95 -37 28 -4 66 -18 87 -33 37 -26 38 -27 37 -91 0 -64 -1 -66 -41
-97 -39 -32 -43 -33 -133 -33 -90 0 -94 1 -133 33 -36 28 -41 37 -41 75 l-1
42 55 0 c50 0 56 -2 65 -26 9 -22 15 -25 52 -22 35 2 44 7 46 24 3 23 -6 27
-93 40 -32 4 -63 17 -87 36 -36 28 -38 33 -38 88 0 56 2 60 42 94 41 35 43 36
131 36 87 0 89 -1 133 -36z m464 -39 l0 -75 -46 0 c-37 0 -47 4 -51 20 -4 17
-14 20 -54 20 -48 0 -49 -1 -49 -30 0 -29 1 -30 50 -30 l50 0 0 -40 0 -40 -50
0 -50 0 0 -35 0 -35 49 0 c44 0 49 3 55 25 6 22 12 25 51 25 l45 0 0 -75 0
-75 -185 0 -185 0 0 46 c0 37 4 47 20 51 18 5 20 14 20 110 0 96 -2 105 -20
110 -17 4 -20 14 -20 54 l0 49 185 0 185 0 0 -75z m387 32 l53 -42 0 -126 0
-125 -51 -42 -52 -42 -143 0 -144 0 0 46 c0 37 4 47 20 51 18 5 20 14 20 110
0 96 -2 105 -20 110 -17 4 -20 14 -20 54 l0 49 143 0 142 0 52 -43z m-1366
-528 c21 -18 21 -20 4 -14 -45 16 -56 17 -70 5 -18 -15 -20 -81 -3 -98 15 -15
51 -15 66 0 6 6 14 9 17 6 12 -11 -27 -38 -55 -38 -37 0 -60 32 -60 82 0 68
54 99 101 57z m127 5 c17 -12 22 -25 22 -61 0 -55 -21 -83 -61 -83 -36 0 -59
33 -59 82 0 65 49 96 98 62z m128 8 c19 -12 34 -49 34 -81 0 -44 -31 -71 -80
-71 l-40 0 0 80 0 80 38 0 c20 0 42 -4 48 -8z m164 -2 c0 -5 -20 -10 -45 -10
-41 0 -45 -2 -45 -25 0 -23 4 -25 46 -25 27 0 43 -4 39 -10 -3 -5 -24 -10 -46
-10 -35 0 -39 -3 -39 -25 0 -23 4 -25 45 -25 25 0 45 -4 45 -10 0 -5 -25 -10
-55 -10 l-55 0 0 80 0 80 55 0 c30 0 55 -4 55 -10z"/>
<path d="M1812 2096 c-13 -45 -12 -49 16 -44 17 3 18 6 7 43 l-12 40 -11 -39z"/>
<path d="M3540 2045 l0 -105 31 0 c61 0 69 12 69 103 0 95 -7 107 -62 107
l-38 0 0 -105z"/>
<path d="M2402 1678 c-7 -7 -12 -28 -12 -48 0 -41 14 -60 46 -60 25 0 34 17
34 64 0 35 -15 56 -40 56 -9 0 -21 -5 -28 -12z"/>
<path d="M2530 1630 c0 -60 0 -60 30 -60 32 0 50 22 50 64 0 31 -24 56 -56 56
-23 0 -24 -3 -24 -60z"/>
</g>
</svg>
